<svg width="30" height="30" viewBox="0 0 30 30" fill="none" xmlns="http://www.w3.org/2000/svg">
<path d="M0.078125 8.84416C0.104166 8.22078 0.175781 7.5974 0.292969 6.97403C0.410156 6.35065 0.572916 5.75325 0.78125 5.18182C1.17188 4.16883 1.7513 3.27922 2.51953 2.51299C3.28776 1.74675 4.16667 1.16883 5.15625 0.779221C5.75521 0.57143 6.36068 0.409092 6.97266 0.292208C7.58463 0.175325 8.20312 0.116884 8.82812 0.116884C9.63542 0.0649357 10.3581 0.0324688 10.9961 0.0194817C11.6341 0.00649452 12.9688 0 15 0C17.0312 0 18.3724 0.00649452 19.0234 0.0194817C19.6745 0.0324688 20.3906 0.0649357 21.1719 0.116884C21.7969 0.116884 22.4154 0.175325 23.0273 0.292208C23.6393 0.409092 24.2448 0.57143 24.8438 0.779221C25.8333 1.16883 26.7122 1.74675 27.4805 2.51299C28.2487 3.27922 28.8281 4.16883 29.2188 5.18182C29.4271 5.75325 29.5898 6.34416 29.707 6.95455C29.8242 7.56494 29.8958 8.18182 29.9219 8.80519C29.9479 9.61039 29.9674 10.3312 29.9805 10.9675C29.9935 11.6039 30 12.9351 30 14.961C30 16.987 30 18.3247 30 18.974C30 19.6234 29.974 20.3506 29.9219 21.1558C29.8958 21.7792 29.8242 22.3896 29.707 22.987C29.5898 23.5844 29.4271 24.1818 29.2188 24.7792C28.8281 25.7922 28.2487 26.6753 27.4805 27.4286C26.7122 28.1818 25.8203 28.7532 24.8047 29.1429C24.2318 29.3766 23.6393 29.5584 23.0273 29.6883C22.4154 29.8182 21.7969 29.8831 21.1719 29.8831C20.3646 29.9351 19.6419 29.9675 19.0039 29.9805C18.3659 29.9935 17.0312 30 15 30C12.9688 30 11.6276 29.9935 10.9766 29.9805C10.3255 29.9675 9.60938 29.9351 8.82812 29.8831C8.20312 29.8831 7.58463 29.8247 6.97266 29.7078C6.36068 29.5909 5.75521 29.4286 5.15625 29.2208C4.16667 28.8312 3.28776 28.2532 2.51953 27.487C1.7513 26.7208 1.17188 25.8312 0.78125 24.8182C0.572916 24.2468 0.410156 23.6558 0.292969 23.0455C0.175781 22.4351 0.104166 21.8182 0.078125 21.1948C0.052084 20.3896 0.0325527 19.6688 0.0195312 19.0325C0.00650978 18.3961 0 17.0649 0 15.039C0 12.987 0 11.6429 0 11.0065C0 10.3701 0.026041 9.64935 0.078125 8.84416ZM15 22.6364C16.0677 22.6364 17.0703 22.4416 18.0078 22.0519C18.9453 21.6364 19.7656 21.0844 20.4688 20.3961C21.1719 19.7078 21.7188 18.8961 22.1094 17.961C22.526 17.026 22.7344 16.026 22.7344 14.961C22.7344 13.8961 22.526 12.8961 22.1094 11.961C21.7188 11.026 21.1719 10.2143 20.4688 9.52597C19.7656 8.83766 18.9453 8.28572 18.0078 7.87013C17.0703 7.48052 16.0677 7.28572 15 7.28572C13.9323 7.28572 12.9427 7.48052 12.0312 7.87013C11.0938 8.28572 10.2734 8.83766 9.57031 9.52597C8.86719 10.2143 8.32031 11.026 7.92969 11.961C7.51302 12.8961 7.30469 13.8961 7.30469 14.961C7.30469 16.026 7.51302 17.026 7.92969 17.961C8.32031 18.8961 8.86719 19.7078 9.57031 20.3961C10.2734 21.0844 11.0938 21.6364 12.0312 22.0519C12.9427 22.4416 13.9323 22.6364 15 22.6364ZM6.99219 8.80519C7.48698 8.80519 7.91016 8.62987 8.26172 8.27922C8.61328 7.92857 8.78906 7.50649 8.78906 7.01299C8.78906 6.49351 8.61328 6.06494 8.26172 5.72727C7.91016 5.38961 7.48698 5.22078 6.99219 5.22078C6.4974 5.22078 6.07422 5.38961 5.72266 5.72727C5.37109 6.06494 5.19531 6.49351 5.19531 7.01299C5.19531 7.50649 5.37109 7.92857 5.72266 8.27922C6.07422 8.62987 6.4974 8.80519 6.99219 8.80519ZM10 14.961C10 16.3377 10.4883 17.513 11.4648 18.487C12.4414 19.461 13.6198 19.9481 15 19.9481C16.3802 19.9481 17.5586 19.461 18.5352 18.487C19.5117 17.513 20 16.3377 20 14.961C20 13.5844 19.5117 12.4091 18.5352 11.4351C17.5586 10.461 16.3802 9.97403 15 9.97403C13.6198 9.97403 12.4414 10.461 11.4648 11.4351C10.4883 12.4091 10 13.5844 10 14.961Z" fill="#509F8C"/>
<path d="M0.078125 8.84416C0.104166 8.22078 0.175781 7.5974 0.292969 6.97403C0.410156 6.35065 0.572916 5.75325 0.78125 5.18182C1.17188 4.16883 1.7513 3.27922 2.51953 2.51299C3.28776 1.74675 4.16667 1.16883 5.15625 0.779221C5.75521 0.57143 6.36068 0.409092 6.97266 0.292208C7.58463 0.175325 8.20312 0.116884 8.82812 0.116884C9.63542 0.0649357 10.3581 0.0324688 10.9961 0.0194817C11.6341 0.00649452 12.9688 0 15 0C17.0312 0 18.3724 0.00649452 19.0234 0.0194817C19.6745 0.0324688 20.3906 0.0649357 21.1719 0.116884C21.7969 0.116884 22.4154 0.175325 23.0273 0.292208C23.6393 0.409092 24.2448 0.57143 24.8438 0.779221C25.8333 1.16883 26.7122 1.74675 27.4805 2.51299C28.2487 3.27922 28.8281 4.16883 29.2188 5.18182C29.4271 5.75325 29.5898 6.34416 29.707 6.95455C29.8242 7.56494 29.8958 8.18182 29.9219 8.80519C29.9479 9.61039 29.9674 10.3312 29.9805 10.9675C29.9935 11.6039 30 12.9351 30 14.961C30 16.987 30 18.3247 30 18.974C30 19.6234 29.974 20.3506 29.9219 21.1558C29.8958 21.7792 29.8242 22.3896 29.707 22.987C29.5898 23.5844 29.4271 24.1818 29.2188 24.7792C28.8281 25.7922 28.2487 26.6753 27.4805 27.4286C26.7122 28.1818 25.8203 28.7532 24.8047 29.1429C24.2318 29.3766 23.6393 29.5584 23.0273 29.6883C22.4154 29.8182 21.7969 29.8831 21.1719 29.8831C20.3646 29.9351 19.6419 29.9675 19.0039 29.9805C18.3659 29.9935 17.0312 30 15 30C12.9688 30 11.6276 29.9935 10.9766 29.9805C10.3255 29.9675 9.60938 29.9351 8.82812 29.8831C8.20312 29.8831 7.58463 29.8247 6.97266 29.7078C6.36068 29.5909 5.75521 29.4286 5.15625 29.2208C4.16667 28.8312 3.28776 28.2532 2.51953 27.487C1.7513 26.7208 1.17188 25.8312 0.78125 24.8182C0.572916 24.2468 0.410156 23.6558 0.292969 23.0455C0.175781 22.4351 0.104166 21.8182 0.078125 21.1948C0.052084 20.3896 0.0325527 19.6688 0.0195312 19.0325C0.00650978 18.3961 0 17.0649 0 15.039C0 12.987 0 11.6429 0 11.0065C0 10.3701 0.026041 9.64935 0.078125 8.84416ZM15 22.6364C16.0677 22.6364 17.0703 22.4416 18.0078 22.0519C18.9453 21.6364 19.7656 21.0844 20.4688 20.3961C21.1719 19.7078 21.7188 18.8961 22.1094 17.961C22.526 17.026 22.7344 16.026 22.7344 14.961C22.7344 13.8961 22.526 12.8961 22.1094 11.961C21.7188 11.026 21.1719 10.2143 20.4688 9.52597C19.7656 8.83766 18.9453 8.28572 18.0078 7.87013C17.0703 7.48052 16.0677 7.28572 15 7.28572C13.9323 7.28572 12.9427 7.48052 12.0312 7.87013C11.0938 8.28572 10.2734 8.83766 9.57031 9.52597C8.86719 10.2143 8.32031 11.026 7.92969 11.961C7.51302 12.8961 7.30469 13.8961 7.30469 14.961C7.30469 16.026 7.51302 17.026 7.92969 17.961C8.32031 18.8961 8.86719 19.7078 9.57031 20.3961C10.2734 21.0844 11.0938 21.6364 12.0312 22.0519C12.9427 22.4416 13.9323 22.6364 15 22.6364ZM6.99219 8.80519C7.48698 8.80519 7.91016 8.62987 8.26172 8.27922C8.61328 7.92857 8.78906 7.50649 8.78906 7.01299C8.78906 6.49351 8.61328 6.06494 8.26172 5.72727C7.91016 5.38961 7.48698 5.22078 6.99219 5.22078C6.4974 5.22078 6.07422 5.38961 5.72266 5.72727C5.37109 6.06494 5.19531 6.49351 5.19531 7.01299C5.19531 7.50649 5.37109 7.92857 5.72266 8.27922C6.07422 8.62987 6.4974 8.80519 6.99219 8.80519ZM10 14.961C10 16.3377 10.4883 17.513 11.4648 18.487C12.4414 19.461 13.6198 19.9481 15 19.9481C16.3802 19.9481 17.5586 19.461 18.5352 18.487C19.5117 17.513 20 16.3377 20 14.961C20 13.5844 19.5117 12.4091 18.5352 11.4351C17.5586 10.461 16.3802 9.97403 15 9.97403C13.6198 9.97403 12.4414 10.461 11.4648 11.4351C10.4883 12.4091 10 13.5844 10 14.961Z" fill="#FAFFFE"/>
</svg>
